<?xml version="1.0" encoding="utf-8"?>
<!-- Generator: Adobe Illustrator 25.4.1, SVG Export Plug-In . SVG Version: 6.00 Build 0)  -->
<svg version="1.1" id="Calque_1" xmlns="http://www.w3.org/2000/svg" xmlns:xlink="http://www.w3.org/1999/xlink" x="0px" y="0px"
	 viewBox="0 0 595.3 841.9" style="enable-background:new 0 0 595.3 841.9;" xml:space="preserve">
<style type="text/css">
	.st0{fill:url(#SVGID_1_);}
	.st1{fill:url(#SVGID_00000166642113194640026670000014341328513187613084_);}
	.st2{fill:url(#SVGID_00000119806902438808455120000005890537986079993229_);}
	.st3{fill:url(#SVGID_00000014633748603331469560000011410566019455261355_);}
	.st4{fill:url(#SVGID_00000109030607582436844580000010958458624850216842_);}
	.st5{fill:url(#SVGID_00000087412914235919441720000017203897400528996755_);}
	.st6{fill:url(#SVGID_00000049193468601735018420000008111018273860670616_);}
	.st7{fill:url(#SVGID_00000062881124252479984620000000551197927144612020_);}
	.st8{fill:url(#SVGID_00000116942194897530967690000018309325705667609259_);}
	.st9{fill:url(#SVGID_00000043455950263063474300000004908557975232304011_);}
	.st10{fill:url(#SVGID_00000013171228397574932600000015420676043887766185_);}
	.st11{fill:url(#SVGID_00000030464645898079904650000011603122286168071327_);}
	.st12{fill:url(#SVGID_00000048494847602926159110000016047994222335224464_);}
	.st13{fill:url(#SVGID_00000149339900744604404940000014793023642092852917_);}
	.st14{fill:url(#SVGID_00000105415658859191871010000008415372037394509484_);}
	.st15{fill:#9AB5DF;}
	.st16{fill:url(#SVGID_00000094617431646055408260000011681838837369796793_);}
	.st17{fill:#97C349;}
	.st18{fill:#FFFFFF;}
	.st19{fill:url(#SVGID_00000183248913639728950790000015003142750046197410_);}
	.st20{fill:url(#SVGID_00000062154380529488318240000015632529260990590601_);}
	.st21{fill:url(#SVGID_00000178171892295503501220000015921243520236326539_);}
	.st22{fill:url(#SVGID_00000106115134082231836770000016467012418776159136_);}
</style>
<g id="Calque_1_00000176035680948431303630000016771273300646801281_">
	<linearGradient id="SVGID_1_" gradientUnits="userSpaceOnUse" x1="55.96" y1="643.965" x2="551.18" y2="643.965">
		<stop  offset="0" style="stop-color:#97C349"/>
		<stop  offset="1" style="stop-color:#8FB562"/>
	</linearGradient>
	<rect x="56" y="565" class="st0" width="495.2" height="157.9"/>
	
		<linearGradient id="SVGID_00000183934100534166718710000000678505727670978698_" gradientUnits="userSpaceOnUse" x1="55.96" y1="465.725" x2="551.18" y2="465.725">
		<stop  offset="0" style="stop-color:#9AB5DF"/>
		<stop  offset="1" style="stop-color:#7F93D4"/>
	</linearGradient>
	
		<rect x="56" y="386.8" style="fill:url(#SVGID_00000183934100534166718710000000678505727670978698_);" width="495.2" height="157.9"/>
</g>
<linearGradient id="SVGID_00000148638119897267418150000003837109669763570061_" gradientUnits="userSpaceOnUse" x1="233.5942" y1="285.2139" x2="233.5942" y2="252.1539">
	<stop  offset="0" style="stop-color:#9AB5DF"/>
	<stop  offset="1" style="stop-color:#7F93D4"/>
</linearGradient>
<path style="fill:url(#SVGID_00000148638119897267418150000003837109669763570061_);" d="M239.7,279.2c-1.4,1-3.2,1.5-5.1,1.5
	c-2,0-3.8-0.5-5.2-1.4c-1.5-0.9-2.6-2.3-3.4-4.1c-0.8-1.8-1.2-4-1.2-6.5c0-2.5,0.4-4.7,1.2-6.5c0.8-1.8,2-3.1,3.5-4.1
	c1.5-0.9,3.2-1.4,5.2-1.4c2,0,3.6,0.5,4.8,1.3c1.2,0.9,2.2,2.3,2.8,4.2l4.9-2.2c-0.7-1.8-1.6-3.2-2.8-4.4c-1.2-1.2-2.6-2-4.3-2.6
	c-1.7-0.6-3.6-0.9-5.7-0.9c-3,0-5.7,0.7-8,2c-2.3,1.3-4,3.2-5.2,5.7c-1.2,2.5-1.8,5.4-1.8,8.9c0,3.4,0.6,6.4,1.8,8.8
	c1.2,2.5,3,4.4,5.2,5.7c2.3,1.3,4.9,2,8,2c2.1,0,4-0.3,5.8-1c1.8-0.7,3.3-1.7,4.6-3c1.3-1.3,2.3-3,2.9-4.9l-5-1.7
	C242.2,276.6,241.2,278.1,239.7,279.2z"/>
<linearGradient id="SVGID_00000094601729681034171570000011455955780617940398_" gradientUnits="userSpaceOnUse" x1="259.0342" y1="285.2239" x2="259.0342" y2="249.4839">
	<stop  offset="0" style="stop-color:#9AB5DF"/>
	<stop  offset="1" style="stop-color:#7F93D4"/>
</linearGradient>
<path style="fill:url(#SVGID_00000094601729681034171570000011455955780617940398_);" d="M261.5,281.1c-1,0-1.7-0.2-2.1-0.7
	c-0.4-0.5-0.6-1.3-0.6-2.5v-28.4h-5.2v28.9c0,2.3,0.5,4.1,1.5,5.2c1,1.1,2.6,1.7,4.8,1.7c0.7,0,1.4-0.1,2.1-0.2
	c0.7-0.2,1.3-0.3,1.9-0.6l0.6-3.9c-0.6,0.2-1.1,0.4-1.5,0.5C262.6,281,262.1,281.1,261.5,281.1z"/>
<linearGradient id="SVGID_00000126298666275439527710000011887431561154987401_" gradientUnits="userSpaceOnUse" x1="279.4142" y1="285.2239" x2="279.4142" y2="259.9439">
	<stop  offset="0" style="stop-color:#9AB5DF"/>
	<stop  offset="1" style="stop-color:#7F93D4"/>
</linearGradient>
<path style="fill:url(#SVGID_00000126298666275439527710000011887431561154987401_);" d="M290,265.8c-1-1.9-2.4-3.3-4.2-4.3
	c-1.8-1-3.9-1.5-6.3-1.5s-4.5,0.5-6.3,1.5c-1.8,1-3.2,2.5-4.3,4.3c-1,1.9-1.6,4.2-1.6,6.8s0.5,4.9,1.6,6.8c1,1.9,2.5,3.4,4.3,4.4
	c1.8,1,3.9,1.5,6.3,1.5c2.4,0,4.5-0.5,6.3-1.5c1.8-1,3.2-2.5,4.2-4.4c1-1.9,1.5-4.2,1.5-6.8S291,267.7,290,265.8z M285.5,277.2
	c-0.5,1.3-1.3,2.3-2.3,2.9c-1,0.7-2.2,1-3.7,1c-1.5,0-2.7-0.3-3.7-1c-1-0.7-1.8-1.6-2.4-2.9c-0.6-1.3-0.8-2.8-0.8-4.6
	c0-1.9,0.3-3.4,0.8-4.7s1.3-2.2,2.4-2.9c1-0.7,2.3-1,3.7-1c1.5,0,2.7,0.3,3.7,1c1,0.7,1.8,1.6,2.3,2.9c0.5,1.3,0.8,2.8,0.8,4.7
	C286.3,274.4,286,275.9,285.5,277.2z"/>
<linearGradient id="SVGID_00000024699408346701522390000009002567416870266768_" gradientUnits="userSpaceOnUse" x1="300.6591" y1="256.3439" x2="300.6591" y2="249.8739">
	<stop  offset="0" style="stop-color:#9AB5DF"/>
	<stop  offset="1" style="stop-color:#7F93D4"/>
</linearGradient>
<path style="fill:url(#SVGID_00000024699408346701522390000009002567416870266768_);" d="M300.7,249.9c-1.1,0-2,0.3-2.6,0.8
	c-0.6,0.6-0.9,1.3-0.9,2.4c0,1,0.3,1.8,0.9,2.4c0.6,0.6,1.5,0.8,2.6,0.8c1.1,0,2-0.3,2.5-0.8c0.6-0.6,0.9-1.4,0.9-2.4
	c0-1-0.3-1.8-0.9-2.4C302.6,250.2,301.8,249.9,300.7,249.9z"/>
<linearGradient id="SVGID_00000076561256837470795650000012137592258717019279_" gradientUnits="userSpaceOnUse" x1="296.6292" y1="295.1939" x2="296.6292" y2="260.4239">
	<stop  offset="0" style="stop-color:#9AB5DF"/>
	<stop  offset="1" style="stop-color:#7F93D4"/>
</linearGradient>
<path style="fill:url(#SVGID_00000076561256837470795650000012137592258717019279_);" d="M298.1,286.4c0,1.6-0.3,2.7-1,3.4
	c-0.6,0.7-1.5,1-2.5,1c-0.8,0-1.5-0.1-2.1-0.4s-1.2-0.6-1.6-1l-0.9,4.2c0.6,0.5,1.4,0.9,2.3,1.2c0.9,0.3,1.9,0.4,3,0.4
	c1.4,0,2.6-0.3,3.9-0.8c1.2-0.5,2.2-1.4,3-2.6c0.8-1.2,1.1-2.9,1.1-4.9v-26.5h-5.2V286.4z"/>
<linearGradient id="SVGID_00000029766929670816825670000010689361855966646162_" gradientUnits="userSpaceOnUse" x1="322.2442" y1="285.2239" x2="322.2442" y2="260.4239">
	<stop  offset="0" style="stop-color:#9AB5DF"/>
	<stop  offset="1" style="stop-color:#7F93D4"/>
</linearGradient>
<path style="fill:url(#SVGID_00000029766929670816825670000010689361855966646162_);" d="M328.1,273.6c0,1.3-0.2,2.4-0.5,3.3
	c-0.3,0.9-0.8,1.7-1.4,2.3c-0.6,0.6-1.3,1-2.1,1.3c-0.8,0.3-1.5,0.4-2.4,0.4c-1.7,0-3-0.4-3.9-1.2c-0.9-0.8-1.4-2.3-1.4-4.5v-14.7
	h-5.2v16c0,2.1,0.4,3.8,1.2,5.1c0.8,1.3,1.9,2.2,3.2,2.8c1.3,0.6,2.8,0.9,4.4,0.9c1.9,0,3.6-0.4,5.1-1.1c1.4-0.7,2.6-1.8,3.4-3.3
	l0.2,3.9h4.6v-24.3h-5.2V273.6z"/>
<linearGradient id="SVGID_00000061442151546323708210000006921735574539810952_" gradientUnits="userSpaceOnUse" x1="349.0292" y1="284.7239" x2="349.0292" y2="259.9439">
	<stop  offset="0" style="stop-color:#9AB5DF"/>
	<stop  offset="1" style="stop-color:#7F93D4"/>
</linearGradient>
<path style="fill:url(#SVGID_00000061442151546323708210000006921735574539810952_);" d="M354,259.9c-1.9,0-3.5,0.4-4.7,1.2
	c-1.3,0.8-2.2,2-2.9,3.6l-0.5-4.4h-4.4v24.3h5.2v-12.9c0-1.7,0.3-3,1-4.1c0.6-1.1,1.4-1.9,2.4-2.4c1-0.5,2-0.8,3-0.8
	c0.7,0,1.3,0,1.8,0.1s0.8,0.2,1.2,0.3l0.7-4.6c-0.3-0.2-0.7-0.3-1.2-0.4C354.9,260,354.5,259.9,354,259.9z"/>
<linearGradient id="SVGID_00000003813265695702496170000011196980682023192722_" gradientUnits="userSpaceOnUse" x1="369.9042" y1="285.2239" x2="369.9042" y2="259.9438">
	<stop  offset="0" style="stop-color:#9AB5DF"/>
	<stop  offset="1" style="stop-color:#7F93D4"/>
</linearGradient>
<path style="fill:url(#SVGID_00000003813265695702496170000011196980682023192722_);" d="M376.3,261.4c-1.6-1-3.7-1.5-6-1.5
	c-2.3,0-4.4,0.5-6.2,1.5s-3.2,2.5-4.2,4.4c-1,1.9-1.5,4.2-1.5,6.8s0.5,4.9,1.5,6.8c1,1.9,2.5,3.3,4.3,4.3c1.9,1,4,1.5,6.4,1.5
	c1.6,0,3.1-0.2,4.5-0.7c1.4-0.5,2.5-1.1,3.5-2s1.8-1.9,2.4-3l-4.1-1.9c-0.6,1.1-1.4,2-2.4,2.6c-1,0.6-2.3,0.9-3.9,0.9
	c-1.5,0-2.7-0.3-3.8-1c-1.1-0.6-1.9-1.6-2.5-2.9c-0.4-0.9-0.7-1.9-0.8-3.1h17.8c0.1-0.4,0.1-0.8,0.2-1.4c0-0.5,0-1.1,0-1.6
	c0-2.1-0.4-4-1.3-5.7C379.3,263.7,378,262.4,376.3,261.4z M364.2,267.9c0.5-1.3,1.3-2.2,2.4-2.9c1-0.6,2.3-1,3.6-1
	c1.9,0,3.4,0.6,4.5,1.8c1,1,1.5,2.5,1.6,4.3h-12.8C363.7,269.3,363.9,268.6,364.2,267.9z"/>
<g>
	
		<linearGradient id="SVGID_00000101101860999461905680000010765282669879820726_" gradientUnits="userSpaceOnUse" x1="402.1442" y1="284.7439" x2="402.1442" y2="252.6439">
		<stop  offset="0" style="stop-color:#97C349"/>
		<stop  offset="1" style="stop-color:#8FB562"/>
	</linearGradient>
	<path style="fill:url(#SVGID_00000101101860999461905680000010765282669879820726_);" d="M399.8,252.6h-11.3v32.1h11.3
		c5,0,8.9-1.4,11.7-4.2c2.8-2.8,4.2-6.7,4.2-11.9c0-5.2-1.4-9.1-4.2-11.9C408.8,254,404.9,252.6,399.8,252.6z M407.6,277.3
		c-1.8,2-4.4,3-7.8,3h-6.1v-23.2h6.1c3.4,0,6,1,7.8,3c1.8,2,2.7,4.9,2.7,8.6C410.3,272.4,409.4,275.2,407.6,277.3z"/>
	
		<linearGradient id="SVGID_00000012461969551267793330000002784758246159299712_" gradientUnits="userSpaceOnUse" x1="433.3192" y1="285.2239" x2="433.3192" y2="259.9339">
		<stop  offset="0" style="stop-color:#97C349"/>
		<stop  offset="1" style="stop-color:#8FB562"/>
	</linearGradient>
	<path style="fill:url(#SVGID_00000012461969551267793330000002784758246159299712_);" d="M441.9,279.4v-10.8c0-2-0.4-3.6-1.3-4.9
		c-0.8-1.3-2-2.2-3.5-2.8s-3.2-1-5.1-1c-2.9,0-5.2,0.6-7,1.8c-1.8,1.2-3,2.8-3.6,4.8l4.4,1.8c0.5-1.5,1.2-2.6,2.3-3.3
		c1-0.7,2.3-1,3.7-1c1.5,0,2.8,0.4,3.7,1.3s1.3,2.2,1.3,3.8h0v0.9l-8.7,1.7c-2.2,0.4-3.8,1.2-5,2.4c-1.2,1.2-1.8,2.7-1.8,4.5
		c0,1.5,0.3,2.7,1,3.7s1.7,1.7,2.9,2.2c1.2,0.5,2.6,0.7,4.1,0.7c1.2,0,2.5-0.2,3.7-0.6c1.2-0.4,2.2-1,3.2-1.8
		c0.4-0.3,0.7-0.7,0.9-1.1c0.1,0.4,0.3,0.8,0.5,1.2c0.5,0.8,1.1,1.3,1.9,1.7c0.8,0.4,1.8,0.6,2.8,0.6c1.1,0,2.1-0.2,2.8-0.5l0.3-3.6
		c-0.5,0.2-1.1,0.2-1.7,0.2C442.5,281.2,441.9,280.6,441.9,279.4z M436.7,275.8c0,1-0.2,1.8-0.5,2.5c-0.3,0.7-0.8,1.3-1.4,1.7
		s-1.3,0.8-2.1,1c-0.8,0.2-1.5,0.3-2.4,0.3c-1.2,0-2.1-0.3-2.8-0.8c-0.7-0.5-1-1.2-1-2.2c0-0.9,0.3-1.7,1-2.1s1.7-0.9,3.1-1.1
		l6.1-1.3V275.8z"/>
	
		<linearGradient id="SVGID_00000146493986866461505550000009458002496551971758_" gradientUnits="userSpaceOnUse" x1="456.9992" y1="284.7239" x2="456.9992" y2="259.9439">
		<stop  offset="0" style="stop-color:#97C349"/>
		<stop  offset="1" style="stop-color:#8FB562"/>
	</linearGradient>
	<path style="fill:url(#SVGID_00000146493986866461505550000009458002496551971758_);" d="M461.9,259.9c-1.9,0-3.5,0.4-4.7,1.2
		c-1.3,0.8-2.2,2-2.9,3.6l-0.5-4.4h-4.4v24.3h5.2v-12.9c0-1.7,0.3-3,1-4.1c0.6-1.1,1.4-1.9,2.4-2.4c1-0.5,2-0.8,3-0.8
		c0.7,0,1.3,0,1.8,0.1s0.8,0.2,1.2,0.3l0.7-4.6c-0.3-0.2-0.7-0.3-1.2-0.4C462.9,260,462.4,259.9,461.9,259.9z"/>
	
		<linearGradient id="SVGID_00000160152656033785078690000004415489886650638764_" gradientUnits="userSpaceOnUse" x1="475.8492" y1="285.2239" x2="475.8492" y2="253.2739">
		<stop  offset="0" style="stop-color:#97C349"/>
		<stop  offset="1" style="stop-color:#8FB562"/>
	</linearGradient>
	<path style="fill:url(#SVGID_00000160152656033785078690000004415489886650638764_);" d="M484,279.3c-0.5,0.5-1.1,0.9-1.8,1.1
		c-0.6,0.3-1.4,0.4-2.3,0.4c-1.1,0-1.9-0.3-2.5-0.8c-0.6-0.6-1-1.4-1-2.6v-12.9h8.4v-4.1h-8.4v-7.2l-5.2,1.5v5.7h-4.7v4.1h4.7v13.8
		c0,1.7,0.4,3,1,4c0.6,1,1.5,1.8,2.7,2.2c1.2,0.4,2.5,0.7,3.8,0.7c1.3,0,2.5-0.2,3.6-0.6c1.1-0.4,2-0.9,2.8-1.5L484,279.3z"/>
</g>
<g>
	
		<linearGradient id="SVGID_00000069364173125040112420000009141174704655034500_" gradientUnits="userSpaceOnUse" x1="193.9837" y1="252.5028" x2="161.303" y2="252.5028">
		<stop  offset="0" style="stop-color:#9AB5DF"/>
		<stop  offset="1" style="stop-color:#7F93D4"/>
	</linearGradient>
	<path style="fill:url(#SVGID_00000069364173125040112420000009141174704655034500_);" d="M194,241.9l-2,31.7l-11.7,12
		c-8.7-6-13-18.8-17.1-30.6c-0.6-1.8-1.3-3.7-1.9-5.6v-30.1l24.3,9.4C190.9,230.9,194.3,236.2,194,241.9z"/>
	<path class="st15" d="M161.3,219.4v30.1c-3-8.5-6.9-17.7-15.4-24.2L161.3,219.4L161.3,219.4z"/>
	
		<linearGradient id="SVGID_00000044863705825985638870000017285727750886994566_" gradientUnits="userSpaceOnUse" x1="174.6798" y1="283.1567" x2="161.303" y2="283.1567">
		<stop  offset="0" style="stop-color:#97C349"/>
		<stop  offset="1" style="stop-color:#8FB562"/>
	</linearGradient>
	<path style="fill:url(#SVGID_00000044863705825985638870000017285727750886994566_);" d="M174.7,291.4l-13.4,13.8v-44.1
		C162.7,265.8,166.5,283.1,174.7,291.4z"/>
	<g>
		<path class="st17" d="M159.7,258.1c0-0.1-8.9-26.2-24.6-28.5c-4.3,2.5-7,7.2-6.6,12.3l2,31.7l13.8,14.3
			C144.5,286.5,151.1,264.1,159.7,258.1z"/>
		<path class="st17" d="M161.2,260.8c-11,12.7-10.2,28.1-10.6,33.6l10.6,11l0.1-0.1v-44.1C161.3,261,161.2,260.9,161.2,260.8z"/>
	</g>
</g>
<path class="st18" d="M239.7,480.3c-1.4,1-3.2,1.5-5.1,1.5c-2,0-3.8-0.5-5.2-1.4c-1.5-0.9-2.6-2.3-3.4-4.1c-0.8-1.8-1.2-4-1.2-6.5
	c0-2.5,0.4-4.7,1.2-6.5c0.8-1.8,2-3.1,3.5-4.1c1.5-0.9,3.2-1.4,5.2-1.4c2,0,3.6,0.5,4.8,1.3c1.2,0.9,2.2,2.3,2.8,4.2l4.9-2.2
	c-0.7-1.8-1.6-3.2-2.8-4.4c-1.2-1.2-2.6-2-4.3-2.6c-1.7-0.6-3.6-0.9-5.7-0.9c-3,0-5.7,0.7-8,2c-2.3,1.3-4,3.2-5.2,5.7
	c-1.2,2.5-1.8,5.4-1.8,8.9c0,3.4,0.6,6.4,1.8,8.8c1.2,2.5,3,4.4,5.2,5.7c2.3,1.3,4.9,2,8,2c2.1,0,4-0.3,5.8-1c1.8-0.7,3.3-1.7,4.6-3
	c1.3-1.3,2.3-3,2.9-4.9l-5-1.7C242.2,477.8,241.2,479.3,239.7,480.3z"/>
<path class="st18" d="M261.5,482.3c-1,0-1.7-0.2-2.1-0.7c-0.4-0.5-0.6-1.3-0.6-2.5v-28.4h-5.2v28.9c0,2.3,0.5,4.1,1.5,5.2
	c1,1.1,2.6,1.7,4.8,1.7c0.7,0,1.4-0.1,2.1-0.2c0.7-0.2,1.3-0.3,1.9-0.6l0.6-3.9c-0.6,0.2-1.1,0.4-1.5,0.5
	C262.6,482.2,262.1,482.3,261.5,482.3z"/>
<path class="st18" d="M290,467c-1-1.9-2.4-3.3-4.2-4.3c-1.8-1-3.9-1.5-6.3-1.5s-4.5,0.5-6.3,1.5c-1.8,1-3.2,2.5-4.3,4.3
	c-1,1.9-1.6,4.2-1.6,6.8s0.5,4.9,1.6,6.8c1,1.9,2.5,3.4,4.3,4.4c1.8,1,3.9,1.5,6.3,1.5c2.4,0,4.5-0.5,6.3-1.5c1.8-1,3.2-2.5,4.2-4.4
	c1-1.9,1.5-4.2,1.5-6.8S291,468.9,290,467z M285.5,478.4c-0.5,1.3-1.3,2.3-2.3,2.9c-1,0.7-2.2,1-3.7,1c-1.5,0-2.7-0.3-3.7-1
	c-1-0.7-1.8-1.6-2.4-2.9c-0.6-1.3-0.8-2.8-0.8-4.6c0-1.9,0.3-3.4,0.8-4.7s1.3-2.2,2.4-2.9c1-0.7,2.3-1,3.7-1c1.5,0,2.7,0.3,3.7,1
	c1,0.7,1.8,1.6,2.3,2.9c0.5,1.3,0.8,2.8,0.8,4.7C286.3,475.6,286,477.1,285.5,478.4z"/>
<path class="st18" d="M300.7,451c-1.1,0-2,0.3-2.6,0.8c-0.6,0.6-0.9,1.3-0.9,2.4c0,1,0.3,1.8,0.9,2.4c0.6,0.6,1.5,0.8,2.6,0.8
	c1.1,0,2-0.3,2.5-0.8c0.6-0.6,0.9-1.4,0.9-2.4c0-1-0.3-1.8-0.9-2.4C302.6,451.3,301.8,451,300.7,451z"/>
<path class="st18" d="M298.1,487.6c0,1.6-0.3,2.7-1,3.4c-0.6,0.7-1.5,1-2.5,1c-0.8,0-1.5-0.1-2.1-0.4s-1.2-0.6-1.6-1l-0.9,4.2
	c0.6,0.5,1.4,0.9,2.3,1.2c0.9,0.3,1.9,0.4,3,0.4c1.4,0,2.6-0.3,3.9-0.8c1.2-0.5,2.2-1.4,3-2.6c0.8-1.2,1.1-2.9,1.1-4.9v-26.5h-5.2
	V487.6z"/>
<path class="st18" d="M328.1,474.8c0,1.3-0.2,2.4-0.5,3.3c-0.3,0.9-0.8,1.7-1.4,2.3c-0.6,0.6-1.3,1-2.1,1.3
	c-0.8,0.3-1.5,0.4-2.4,0.4c-1.7,0-3-0.4-3.9-1.2c-0.9-0.8-1.4-2.3-1.4-4.5v-14.7h-5.2v16c0,2.1,0.4,3.8,1.2,5.1
	c0.8,1.3,1.9,2.2,3.2,2.8c1.3,0.6,2.8,0.9,4.4,0.9c1.9,0,3.6-0.4,5.1-1.1c1.4-0.7,2.6-1.8,3.4-3.3l0.2,3.9h4.6v-24.3h-5.2V474.8z"/>
<path class="st18" d="M354,461.1c-1.9,0-3.5,0.4-4.7,1.2c-1.3,0.8-2.2,2-2.9,3.6l-0.5-4.4h-4.4v24.3h5.2V473c0-1.7,0.3-3,1-4.1
	c0.6-1.1,1.4-1.9,2.4-2.4c1-0.5,2-0.8,3-0.8c0.7,0,1.3,0,1.8,0.1s0.8,0.2,1.2,0.3l0.7-4.6c-0.3-0.2-0.7-0.3-1.2-0.4
	C354.9,461.2,354.5,461.1,354,461.1z"/>
<path class="st18" d="M376.3,462.6c-1.6-1-3.7-1.5-6-1.5c-2.3,0-4.4,0.5-6.2,1.5s-3.2,2.5-4.2,4.4c-1,1.9-1.5,4.2-1.5,6.8
	s0.5,4.9,1.5,6.8c1,1.9,2.5,3.3,4.3,4.3c1.9,1,4,1.5,6.4,1.5c1.6,0,3.1-0.2,4.5-0.7c1.4-0.5,2.5-1.1,3.5-2s1.8-1.9,2.4-3l-4.1-1.9
	c-0.6,1.1-1.4,2-2.4,2.6c-1,0.6-2.3,0.9-3.9,0.9c-1.5,0-2.7-0.3-3.8-1c-1.1-0.6-1.9-1.6-2.5-2.9c-0.4-0.9-0.7-1.9-0.8-3.1h17.8
	c0.1-0.4,0.1-0.8,0.2-1.4c0-0.5,0-1.1,0-1.6c0-2.1-0.4-4-1.3-5.7C379.3,464.9,378,463.5,376.3,462.6z M364.2,469.1
	c0.5-1.3,1.3-2.2,2.4-2.9c1-0.6,2.3-1,3.6-1c1.9,0,3.4,0.6,4.5,1.8c1,1,1.5,2.5,1.6,4.3h-12.8C363.7,470.5,363.9,469.8,364.2,469.1z
	"/>
<g>
	<path class="st18" d="M399.8,453.8h-11.3v32.1h11.3c5,0,8.9-1.4,11.7-4.2c2.8-2.8,4.2-6.7,4.2-11.9c0-5.2-1.4-9.1-4.2-11.9
		C408.8,455.2,404.9,453.8,399.8,453.8z M407.6,478.4c-1.8,2-4.4,3-7.8,3h-6.1v-23.2h6.1c3.4,0,6,1,7.8,3c1.8,2,2.7,4.9,2.7,8.6
		C410.3,473.6,409.4,476.4,407.6,478.4z"/>
	<path class="st18" d="M441.9,480.6v-10.8c0-2-0.4-3.6-1.3-4.9c-0.8-1.3-2-2.2-3.5-2.8s-3.2-1-5.1-1c-2.9,0-5.2,0.6-7,1.8
		c-1.8,1.2-3,2.8-3.6,4.8l4.4,1.8c0.5-1.5,1.2-2.6,2.3-3.3c1-0.7,2.3-1,3.7-1c1.5,0,2.8,0.4,3.7,1.3s1.3,2.2,1.3,3.8h0v0.9l-8.7,1.7
		c-2.2,0.4-3.8,1.2-5,2.4c-1.2,1.2-1.8,2.7-1.8,4.5c0,1.5,0.3,2.7,1,3.7s1.7,1.7,2.9,2.2c1.2,0.5,2.6,0.7,4.1,0.7
		c1.2,0,2.5-0.2,3.7-0.6c1.2-0.4,2.2-1,3.2-1.8c0.4-0.3,0.7-0.7,0.9-1.1c0.1,0.4,0.3,0.8,0.5,1.2c0.5,0.8,1.1,1.3,1.9,1.7
		c0.8,0.4,1.8,0.6,2.8,0.6c1.1,0,2.1-0.2,2.8-0.5l0.3-3.6c-0.5,0.2-1.1,0.2-1.7,0.2C442.5,482.4,441.9,481.8,441.9,480.6z
		 M436.7,476.9c0,1-0.2,1.8-0.5,2.5c-0.3,0.7-0.8,1.3-1.4,1.7s-1.3,0.8-2.1,1c-0.8,0.2-1.5,0.3-2.4,0.3c-1.2,0-2.1-0.3-2.8-0.8
		c-0.7-0.5-1-1.2-1-2.2c0-0.9,0.3-1.7,1-2.1s1.7-0.9,3.1-1.1l6.1-1.3V476.9z"/>
	<path class="st18" d="M461.9,461.1c-1.9,0-3.5,0.4-4.7,1.2c-1.3,0.8-2.2,2-2.9,3.6l-0.5-4.4h-4.4v24.3h5.2V473c0-1.7,0.3-3,1-4.1
		c0.6-1.1,1.4-1.9,2.4-2.4c1-0.5,2-0.8,3-0.8c0.7,0,1.3,0,1.8,0.1s0.8,0.2,1.2,0.3l0.7-4.6c-0.3-0.2-0.7-0.3-1.2-0.4
		C462.9,461.2,462.4,461.1,461.9,461.1z"/>
	<path class="st18" d="M484,480.5c-0.5,0.5-1.1,0.9-1.8,1.1c-0.6,0.3-1.4,0.4-2.3,0.4c-1.1,0-1.9-0.3-2.5-0.8c-0.6-0.6-1-1.4-1-2.6
		v-12.9h8.4v-4.1h-8.4v-7.2l-5.2,1.5v5.7h-4.7v4.1h4.7v13.8c0,1.7,0.4,3,1,4c0.6,1,1.5,1.8,2.7,2.2c1.2,0.4,2.5,0.7,3.8,0.7
		c1.3,0,2.5-0.2,3.6-0.6c1.1-0.4,2-0.9,2.8-1.5L484,480.5z"/>
</g>
<g>
	<path class="st18" d="M194,443.1l-2,31.6l-11.7,12.1c-8.7-6-13-18.9-17.1-30.6c-0.6-1.8-1.2-3.7-1.9-5.6c-3-8.5-6.9-17.7-15.4-24.2
		l15.3-5.9l0.1,0l24.3,9.4C190.9,432,194.3,437.3,194,443.1z"/>
	<g>
		<path class="st18" d="M159.7,459.3c0-0.1-8.9-26.2-24.6-28.5c-4.3,2.5-7,7.2-6.6,12.3l2,31.7l13.8,14.3
			C144.5,487.7,151.1,465.3,159.7,459.3z"/>
		<path class="st18" d="M174.7,492.5l-13.4,13.8l-0.1,0.1l-10.6-11c0.4-5.5-0.4-20.9,10.6-33.6c0,0.1,0.1,0.2,0.1,0.3
			C162.7,467,166.5,484.3,174.7,492.5z"/>
	</g>
</g>
<path class="st18" d="M239.7,662.4c-1.4,1-3.2,1.5-5.1,1.5c-2,0-3.8-0.5-5.2-1.4c-1.5-0.9-2.6-2.3-3.4-4.1c-0.8-1.8-1.2-4-1.2-6.5
	c0-2.5,0.4-4.7,1.2-6.5c0.8-1.8,2-3.1,3.5-4.1c1.5-0.9,3.2-1.4,5.2-1.4c2,0,3.6,0.5,4.8,1.3c1.2,0.9,2.2,2.3,2.8,4.2l4.9-2.2
	c-0.7-1.8-1.6-3.2-2.8-4.4c-1.2-1.2-2.6-2-4.3-2.6c-1.7-0.6-3.6-0.9-5.7-0.9c-3,0-5.7,0.7-8,2c-2.3,1.3-4,3.2-5.2,5.7
	c-1.2,2.5-1.8,5.4-1.8,8.9c0,3.4,0.6,6.4,1.8,8.8c1.2,2.5,3,4.4,5.2,5.7c2.3,1.3,4.9,2,8,2c2.1,0,4-0.3,5.8-1c1.8-0.7,3.3-1.7,4.6-3
	c1.3-1.3,2.3-3,2.9-4.9l-5-1.7C242.2,659.8,241.2,661.4,239.7,662.4z"/>
<path class="st18" d="M261.5,664.3c-1,0-1.7-0.2-2.1-0.7c-0.4-0.5-0.6-1.3-0.6-2.5v-28.4h-5.2v28.9c0,2.3,0.5,4.1,1.5,5.2
	c1,1.1,2.6,1.7,4.8,1.7c0.7,0,1.4-0.1,2.1-0.2c0.7-0.2,1.3-0.3,1.9-0.6l0.6-3.9c-0.6,0.2-1.1,0.4-1.5,0.5
	C262.6,664.3,262.1,664.3,261.5,664.3z"/>
<path class="st18" d="M290,649c-1-1.9-2.4-3.3-4.2-4.3c-1.8-1-3.9-1.5-6.3-1.5s-4.5,0.5-6.3,1.5c-1.8,1-3.2,2.5-4.3,4.3
	c-1,1.9-1.6,4.2-1.6,6.8s0.5,4.9,1.6,6.8c1,1.9,2.5,3.4,4.3,4.4c1.8,1,3.9,1.5,6.3,1.5c2.4,0,4.5-0.5,6.3-1.5c1.8-1,3.2-2.5,4.2-4.4
	c1-1.9,1.5-4.2,1.5-6.8S291,650.9,290,649z M285.5,660.4c-0.5,1.3-1.3,2.3-2.3,2.9c-1,0.7-2.2,1-3.7,1c-1.5,0-2.7-0.3-3.7-1
	c-1-0.7-1.8-1.6-2.4-2.9c-0.6-1.3-0.8-2.8-0.8-4.6c0-1.9,0.3-3.4,0.8-4.7s1.3-2.2,2.4-2.9c1-0.7,2.3-1,3.7-1c1.5,0,2.7,0.3,3.7,1
	c1,0.7,1.8,1.6,2.3,2.9c0.5,1.3,0.8,2.8,0.8,4.7C286.3,657.6,286,659.2,285.5,660.4z"/>
<path class="st18" d="M300.7,633.1c-1.1,0-2,0.3-2.6,0.8c-0.6,0.6-0.9,1.3-0.9,2.4c0,1,0.3,1.8,0.9,2.4c0.6,0.6,1.5,0.8,2.6,0.8
	c1.1,0,2-0.3,2.5-0.8c0.6-0.6,0.9-1.4,0.9-2.4c0-1-0.3-1.8-0.9-2.4C302.6,633.4,301.8,633.1,300.7,633.1z"/>
<path class="st18" d="M298.1,669.6c0,1.6-0.3,2.7-1,3.4c-0.6,0.7-1.5,1-2.5,1c-0.8,0-1.5-0.1-2.1-0.4s-1.2-0.6-1.6-1l-0.9,4.2
	c0.6,0.5,1.4,0.9,2.3,1.2c0.9,0.3,1.9,0.4,3,0.4c1.4,0,2.6-0.3,3.9-0.8c1.2-0.5,2.2-1.4,3-2.6c0.8-1.2,1.1-2.9,1.1-4.9v-26.5h-5.2
	V669.6z"/>
<path class="st18" d="M328.1,656.8c0,1.3-0.2,2.4-0.5,3.3c-0.3,0.9-0.8,1.7-1.4,2.3c-0.6,0.6-1.3,1-2.1,1.3
	c-0.8,0.3-1.5,0.4-2.4,0.4c-1.7,0-3-0.4-3.9-1.2c-0.9-0.8-1.4-2.3-1.4-4.5v-14.7h-5.2v16c0,2.1,0.4,3.8,1.2,5.1
	c0.8,1.3,1.9,2.2,3.2,2.8c1.3,0.6,2.8,0.9,4.4,0.9c1.9,0,3.6-0.4,5.1-1.1c1.4-0.7,2.6-1.8,3.4-3.3l0.2,3.9h4.6v-24.3h-5.2V656.8z"/>
<path class="st18" d="M354,643.2c-1.9,0-3.5,0.4-4.7,1.2c-1.3,0.8-2.2,2-2.9,3.6l-0.5-4.4h-4.4v24.3h5.2v-12.9c0-1.7,0.3-3,1-4.1
	c0.6-1.1,1.4-1.9,2.4-2.4c1-0.5,2-0.8,3-0.8c0.7,0,1.3,0,1.8,0.1s0.8,0.2,1.2,0.3l0.7-4.6c-0.3-0.2-0.7-0.3-1.2-0.4
	C354.9,643.2,354.5,643.2,354,643.2z"/>
<path class="st18" d="M376.3,644.6c-1.6-1-3.7-1.5-6-1.5c-2.3,0-4.4,0.5-6.2,1.5s-3.2,2.5-4.2,4.4c-1,1.9-1.5,4.2-1.5,6.8
	s0.5,4.9,1.5,6.8c1,1.9,2.5,3.3,4.3,4.3c1.9,1,4,1.5,6.4,1.5c1.6,0,3.1-0.2,4.5-0.7c1.4-0.5,2.5-1.1,3.5-2s1.8-1.9,2.4-3l-4.1-1.9
	c-0.6,1.1-1.4,2-2.4,2.6c-1,0.6-2.3,0.9-3.9,0.9c-1.5,0-2.7-0.3-3.8-1c-1.1-0.6-1.9-1.6-2.5-2.9c-0.4-0.9-0.7-1.9-0.8-3.1h17.8
	c0.1-0.4,0.1-0.8,0.2-1.4c0-0.5,0-1.1,0-1.6c0-2.1-0.4-4-1.3-5.7C379.3,646.9,378,645.6,376.3,644.6z M364.2,651.2
	c0.5-1.3,1.3-2.2,2.4-2.9c1-0.6,2.3-1,3.6-1c1.9,0,3.4,0.6,4.5,1.8c1,1,1.5,2.5,1.6,4.3h-12.8C363.7,652.6,363.9,651.8,364.2,651.2z
	"/>
<g>
	<path class="st18" d="M399.8,635.9h-11.3V668h11.3c5,0,8.9-1.4,11.7-4.2c2.8-2.8,4.2-6.7,4.2-11.9c0-5.2-1.4-9.1-4.2-11.9
		C408.8,637.2,404.9,635.9,399.8,635.9z M407.6,660.5c-1.8,2-4.4,3-7.8,3h-6.1v-23.2h6.1c3.4,0,6,1,7.8,3c1.8,2,2.7,4.9,2.7,8.6
		C410.3,655.6,409.4,658.5,407.6,660.5z"/>
	<path class="st18" d="M441.9,662.6v-10.8c0-2-0.4-3.6-1.3-4.9c-0.8-1.3-2-2.2-3.5-2.8s-3.2-1-5.1-1c-2.9,0-5.2,0.6-7,1.8
		c-1.8,1.2-3,2.8-3.6,4.8l4.4,1.8c0.5-1.5,1.2-2.6,2.3-3.3c1-0.7,2.3-1,3.7-1c1.5,0,2.8,0.4,3.7,1.3s1.3,2.2,1.3,3.8h0v0.9l-8.7,1.7
		c-2.2,0.4-3.8,1.2-5,2.4c-1.2,1.2-1.8,2.7-1.8,4.5c0,1.5,0.3,2.7,1,3.7s1.7,1.7,2.9,2.2c1.2,0.5,2.6,0.7,4.1,0.7
		c1.2,0,2.5-0.2,3.7-0.6c1.2-0.4,2.2-1,3.2-1.8c0.4-0.3,0.7-0.7,0.9-1.1c0.1,0.4,0.3,0.8,0.5,1.2c0.5,0.8,1.1,1.3,1.9,1.7
		c0.8,0.4,1.8,0.6,2.8,0.6c1.1,0,2.1-0.2,2.8-0.5l0.3-3.6c-0.5,0.2-1.1,0.2-1.7,0.2C442.5,664.4,441.9,663.8,441.9,662.6z
		 M436.7,659c0,1-0.2,1.8-0.5,2.5c-0.3,0.7-0.8,1.3-1.4,1.7s-1.3,0.8-2.1,1c-0.8,0.2-1.5,0.3-2.4,0.3c-1.2,0-2.1-0.3-2.8-0.8
		c-0.7-0.5-1-1.2-1-2.2c0-0.9,0.3-1.7,1-2.1s1.7-0.9,3.1-1.1l6.1-1.3V659z"/>
	<path class="st18" d="M461.9,643.2c-1.9,0-3.5,0.4-4.7,1.2c-1.3,0.8-2.2,2-2.9,3.6l-0.5-4.4h-4.4v24.3h5.2v-12.9c0-1.7,0.3-3,1-4.1
		c0.6-1.1,1.4-1.9,2.4-2.4c1-0.5,2-0.8,3-0.8c0.7,0,1.3,0,1.8,0.1s0.8,0.2,1.2,0.3l0.7-4.6c-0.3-0.2-0.7-0.3-1.2-0.4
		C462.9,643.2,462.4,643.2,461.9,643.2z"/>
	<path class="st18" d="M484,662.6c-0.5,0.5-1.1,0.9-1.8,1.1c-0.6,0.3-1.4,0.4-2.3,0.4c-1.1,0-1.9-0.3-2.5-0.8c-0.6-0.6-1-1.4-1-2.6
		v-12.9h8.4v-4.1h-8.4v-7.2l-5.2,1.5v5.7h-4.7v4.1h4.7v13.8c0,1.7,0.4,3,1,4c0.6,1,1.5,1.8,2.7,2.2c1.2,0.4,2.5,0.7,3.8,0.7
		c1.3,0,2.5-0.2,3.6-0.6c1.1-0.4,2-0.9,2.8-1.5L484,662.6z"/>
</g>
<g>
	<path class="st18" d="M194,625.1l-2,31.6l-11.7,12.1c-8.7-6-13-18.9-17.1-30.6c-0.6-1.8-1.2-3.7-1.9-5.6c-3-8.5-6.9-17.7-15.4-24.2
		l15.3-5.9l0.1,0l24.3,9.4C190.9,614.1,194.3,619.4,194,625.1z"/>
	<g>
		<path class="st18" d="M159.7,641.3c0-0.1-8.9-26.2-24.6-28.5c-4.3,2.5-7,7.2-6.6,12.3l2,31.7l13.8,14.3
			C144.5,669.7,151.1,647.4,159.7,641.3z"/>
		<path class="st18" d="M174.7,674.6l-13.4,13.8l-0.1,0.1l-10.6-11c0.4-5.5-0.4-20.9,10.6-33.6c0,0.1,0.1,0.2,0.1,0.3
			C162.7,649.1,166.5,666.4,174.7,674.6z"/>
	</g>
</g>
<g>
	
		<linearGradient id="SVGID_00000042709315374534599560000003542699470185761210_" gradientUnits="userSpaceOnUse" x1="193.9837" y1="96.7958" x2="161.303" y2="96.7958">
		<stop  offset="0" style="stop-color:#9AB5DF"/>
		<stop  offset="1" style="stop-color:#7F93D4"/>
	</linearGradient>
	<path style="fill:url(#SVGID_00000042709315374534599560000003542699470185761210_);" d="M194,86.2l-2,31.7l-11.7,12
		c-8.7-6-13-18.8-17.1-30.6c-0.6-1.8-1.3-3.7-1.9-5.6V63.7l24.3,9.4C190.9,75.2,194.3,80.5,194,86.2z"/>
	<path class="st15" d="M161.3,63.7v30.1c-3-8.5-6.9-17.7-15.4-24.2L161.3,63.7L161.3,63.7z"/>
	
		<linearGradient id="SVGID_00000134970032123941694290000015329454409336943287_" gradientUnits="userSpaceOnUse" x1="174.6798" y1="127.4497" x2="161.303" y2="127.4497">
		<stop  offset="0" style="stop-color:#97C349"/>
		<stop  offset="1" style="stop-color:#8FB562"/>
	</linearGradient>
	<path style="fill:url(#SVGID_00000134970032123941694290000015329454409336943287_);" d="M174.7,135.7l-13.4,13.8v-44.1
		C162.7,110.1,166.5,127.4,174.7,135.7z"/>
	<g>
		<path class="st17" d="M159.7,102.4c0-0.1-8.9-26.2-24.6-28.5c-4.3,2.5-7,7.2-6.6,12.3l2,31.7l13.8,14.3
			C144.5,130.8,151.1,108.4,159.7,102.4z"/>
		<path class="st17" d="M161.2,105.1c-11,12.7-10.2,28.1-10.6,33.6l10.6,11l0.1-0.1v-44.1C161.3,105.3,161.2,105.2,161.2,105.1z"/>
	</g>
</g>
<g>
	
		<linearGradient id="SVGID_00000007386879831136111830000008749270858782368180_" gradientUnits="userSpaceOnUse" x1="360.5719" y1="108.3368" x2="348.7943" y2="108.3368">
		<stop  offset="0" style="stop-color:#9AB5DF"/>
		<stop  offset="1" style="stop-color:#7F93D4"/>
	</linearGradient>
	<path style="fill:url(#SVGID_00000007386879831136111830000008749270858782368180_);" d="M360.6,104.5l-0.7,11.4l-4.2,4.3
		c-3.2-2.2-4.7-6.8-6.2-11c-0.2-0.6-0.5-1.3-0.7-2V96.4l8.7,3.4C359.5,100.5,360.7,102.4,360.6,104.5z"/>
	<path class="st15" d="M348.8,96.4v10.8c-1.1-3.1-2.5-6.4-5.5-8.7L348.8,96.4L348.8,96.4z"/>
	
		<linearGradient id="SVGID_00000088099691272472037700000000039231384580569518_" gradientUnits="userSpaceOnUse" x1="353.6151" y1="119.384" x2="348.7943" y2="119.384">
		<stop  offset="0" style="stop-color:#97C349"/>
		<stop  offset="1" style="stop-color:#8FB562"/>
	</linearGradient>
	<path style="fill:url(#SVGID_00000088099691272472037700000000039231384580569518_);" d="M353.6,122.3l-4.8,5v-15.9
		C349.3,113.1,350.7,119.4,353.6,122.3z"/>
	<g>
		<path class="st17" d="M348.2,110.4c0,0-3.2-9.5-8.9-10.3c-1.6,0.9-2.5,2.6-2.4,4.4l0.7,11.4l5,5.1
			C342.8,120.6,345.1,112.5,348.2,110.4z"/>
		<path class="st17" d="M348.8,111.3c-4,4.6-3.7,10.1-3.8,12.1l3.8,3.9l0,0v-15.9C348.8,111.4,348.8,111.4,348.8,111.3z"/>
	</g>
</g>
</svg>
